<svg width="190" height="24" viewBox="0 0 190 24" fill="none" xmlns="http://www.w3.org/2000/svg">
<path d="M0 0.307617H4.64355L18.9111 7.77832V0.307617H23.5547V23.2031H18.9111V12.7002L4.64355 5.27344V23.2031H0V0.307617Z" fill="#1B1B1B"/>
<path d="M28.6816 11.6895C28.6816 9.96094 28.999 8.37891 29.6338 6.94336C30.2686 5.50781 31.1572 4.27734 32.2998 3.25195C33.4521 2.2168 34.8291 1.41602 36.4307 0.849609C38.042 0.283203 39.8242 0 41.7773 0C43.7207 0 45.498 0.283203 47.1094 0.849609C48.7207 1.41602 50.0977 2.2168 51.2402 3.25195C52.3926 4.27734 53.2861 5.50781 53.9209 6.94336C54.5557 8.37891 54.873 9.96094 54.873 11.6895C54.873 13.4277 54.5557 15.0244 53.9209 16.4795C53.2861 17.9248 52.3926 19.1699 51.2402 20.2148C50.0977 21.2598 48.7207 22.0752 47.1094 22.6611C45.498 23.2373 43.7207 23.5254 41.7773 23.5254C39.8242 23.5254 38.042 23.2373 36.4307 22.6611C34.8291 22.0752 33.4521 21.2598 32.2998 20.2148C31.1572 19.1699 30.2686 17.9248 29.6338 16.4795C28.999 15.0244 28.6816 13.4277 28.6816 11.6895ZM33.3252 11.6895C33.3252 12.8711 33.5352 13.9355 33.9551 14.8828C34.3848 15.8301 34.9756 16.6406 35.7275 17.3145C36.4893 17.9785 37.3828 18.4912 38.4082 18.8525C39.4434 19.2139 40.5664 19.3945 41.7773 19.3945C42.9883 19.3945 44.1064 19.2139 45.1318 18.8525C46.167 18.4912 47.0605 17.9785 47.8125 17.3145C48.5645 16.6406 49.1553 15.8301 49.585 14.8828C50.0146 13.9355 50.2295 12.8711 50.2295 11.6895C50.2295 10.5078 50.0146 9.44824 49.585 8.51074C49.1553 7.57324 48.5645 6.78223 47.8125 6.1377C47.0605 5.4834 46.167 4.98535 45.1318 4.64355C44.1064 4.30176 42.9883 4.13086 41.7773 4.13086C40.5664 4.13086 39.4434 4.30176 38.4082 4.64355C37.3828 4.98535 36.4893 5.4834 35.7275 6.1377C34.9756 6.78223 34.3848 7.57324 33.9551 8.51074C33.5352 9.44824 33.3252 10.5078 33.3252 11.6895Z" fill="#1B1B1B"/>
<path d="M60.0293 0.307617H71.6748C73.4326 0.307617 74.9561 0.493164 76.2451 0.864258C77.5342 1.22559 78.6035 1.75293 79.4531 2.44629C80.3027 3.13965 80.9326 3.98438 81.3428 4.98047C81.7627 5.97656 81.9727 7.10449 81.9727 8.36426C81.9727 9.21387 81.8701 10.0244 81.665 10.7959C81.46 11.5576 81.1426 12.2607 80.7129 12.9053C80.293 13.5498 79.7607 14.126 79.1162 14.6338C78.4717 15.1318 77.7148 15.5469 76.8457 15.8789L81.8262 23.2031H76.1426L71.8359 16.6992H71.7041L64.6729 16.6846V23.2031H60.0293V0.307617ZM71.792 12.6709C72.6709 12.6709 73.4375 12.5684 74.0918 12.3633C74.7559 12.1582 75.3076 11.8701 75.7471 11.499C76.1963 11.1279 76.5283 10.6787 76.7432 10.1514C76.9678 9.61426 77.0801 9.01855 77.0801 8.36426C77.0801 7.08496 76.6406 6.09863 75.7617 5.40527C74.8828 4.70215 73.5596 4.35059 71.792 4.35059H64.6729V12.6709H71.792Z" fill="#1B1B1B"/>
<path d="M87.4805 0.307617H99.7119C101.206 0.307617 102.505 0.46875 103.608 0.791016C104.722 1.10352 105.645 1.53809 106.377 2.09473C107.109 2.65137 107.651 3.31543 108.003 4.08691C108.364 4.84863 108.545 5.67383 108.545 6.5625C108.545 8.01758 108.086 9.29199 107.168 10.3857C108.223 11.0107 109.009 11.8213 109.526 12.8174C110.044 13.8135 110.303 14.9463 110.303 16.2158C110.303 17.2803 110.122 18.2422 109.761 19.1016C109.409 19.9609 108.867 20.6982 108.135 21.3135C107.412 21.9189 106.494 22.3877 105.381 22.7197C104.277 23.042 102.974 23.2031 101.47 23.2031H87.4805V0.307617ZM101.499 9.09668C101.899 9.09668 102.29 9.11133 102.671 9.14062C103.325 8.51562 103.652 7.80273 103.652 7.00195C103.652 6.17188 103.325 5.53223 102.671 5.08301C102.026 4.62402 101.079 4.39453 99.8291 4.39453H92.124V9.09668H101.499ZM101.587 19.1602C102.837 19.1602 103.784 18.8916 104.429 18.3545C105.083 17.8174 105.41 17.0605 105.41 16.084C105.41 15.1074 105.083 14.3457 104.429 13.7988C103.784 13.252 102.837 12.9785 101.587 12.9785H92.124V19.1602H101.587Z" fill="#1B1B1B"/>
<path d="M115.02 0.307617H134.517V4.37988H119.663V8.9502H132.817V12.7734H119.663V19.1455H134.824V23.2031H115.02V0.307617Z" fill="#1B1B1B"/>
<path d="M139.98 0.307617H144.624V12.1582L156.709 0.307617H162.656L151.377 11.2354L162.656 23.2031H156.475L148.037 14.4727L144.624 17.7686V23.2031H139.98V0.307617Z" fill="#1B1B1B"/>
<path d="M166.011 16.3916C166.841 16.8604 167.681 17.2852 168.53 17.666C169.39 18.0371 170.278 18.3545 171.196 18.6182C172.114 18.8721 173.076 19.0674 174.082 19.2041C175.098 19.3408 176.177 19.4092 177.319 19.4092C178.696 19.4092 179.868 19.3213 180.835 19.1455C181.802 18.96 182.588 18.7109 183.193 18.3984C183.809 18.0762 184.253 17.6953 184.526 17.2559C184.81 16.8164 184.951 16.3379 184.951 15.8203C184.951 14.9902 184.604 14.3359 183.911 13.8574C183.218 13.3691 182.148 13.125 180.703 13.125C180.068 13.125 179.399 13.1689 178.696 13.2568C177.993 13.335 177.28 13.4229 176.558 13.5205C175.845 13.6182 175.137 13.7109 174.434 13.7988C173.74 13.877 173.086 13.916 172.471 13.916C171.445 13.916 170.459 13.7842 169.512 13.5205C168.574 13.2568 167.739 12.8613 167.007 12.334C166.284 11.8066 165.708 11.1475 165.278 10.3564C164.849 9.56543 164.634 8.64258 164.634 7.58789C164.634 6.96289 164.717 6.34277 164.883 5.72754C165.059 5.1123 165.332 4.52637 165.703 3.96973C166.084 3.40332 166.572 2.88086 167.168 2.40234C167.764 1.91406 168.481 1.49414 169.321 1.14258C170.171 0.791016 171.147 0.517578 172.251 0.322266C173.364 0.117188 174.629 0.0146484 176.045 0.0146484C177.07 0.0146484 178.101 0.0732422 179.136 0.19043C180.171 0.297852 181.177 0.454102 182.153 0.65918C183.14 0.864258 184.087 1.11328 184.995 1.40625C185.903 1.68945 186.748 2.00684 187.529 2.3584L185.493 6.1084C184.849 5.8252 184.155 5.56641 183.413 5.33203C182.671 5.08789 181.895 4.87793 181.084 4.70215C180.273 4.52637 179.434 4.38965 178.564 4.29199C177.705 4.18457 176.826 4.13086 175.928 4.13086C174.648 4.13086 173.594 4.22363 172.764 4.40918C171.943 4.59473 171.289 4.83398 170.801 5.12695C170.312 5.41016 169.971 5.73242 169.775 6.09375C169.59 6.44531 169.497 6.79688 169.497 7.14844C169.497 7.83203 169.805 8.39355 170.42 8.83301C171.035 9.2627 171.973 9.47754 173.232 9.47754C173.74 9.47754 174.321 9.44336 174.976 9.375C175.64 9.29688 176.333 9.21387 177.056 9.12598C177.788 9.03809 178.53 8.95996 179.282 8.8916C180.044 8.81348 180.781 8.77441 181.494 8.77441C182.842 8.77441 184.033 8.92578 185.068 9.22852C186.113 9.53125 186.987 9.96582 187.69 10.5322C188.394 11.0889 188.926 11.7676 189.287 12.5684C189.648 13.3594 189.829 14.248 189.829 15.2344C189.829 16.5527 189.521 17.7295 188.906 18.7646C188.301 19.79 187.432 20.6592 186.299 21.3721C185.176 22.0752 183.818 22.6123 182.227 22.9834C180.635 23.3447 178.862 23.5254 176.909 23.5254C175.62 23.5254 174.36 23.4424 173.13 23.2764C171.899 23.1201 170.718 22.8955 169.585 22.6025C168.462 22.2998 167.388 21.9434 166.362 21.5332C165.347 21.1133 164.404 20.6543 163.535 20.1562L166.011 16.3916Z" fill="#1B1B1B"/>
</svg>
