<svg width="1296" height="108" viewBox="0 0 1296 108" fill="none" xmlns="http://www.w3.org/2000/svg">
<path d="M0.0506517 0.53348H8.8134L19.5516 26.1659L22.0335 32.3644L23.9836 26.1659L27.9344 16.8173L20.8179 0.53348H29.0741L31.9866 8.28164L34.6964 0.53348H42.9527L35.8361 16.8173L39.8629 26.3691L42.2942 32.3644L44.1683 26.2675L54.9571 0.53348H63.7199L46.245 40.2396H38.2927L34.7724 32.3644L31.9106 24.7179L29.0488 32.3644L25.4778 40.2396H17.5255L0.0506517 0.53348Z" fill="#1B1B1B"/>
<path d="M69.8487 0.53348H103.557V7.59574H77.877V15.5217H100.62V22.1521H77.877V33.2028H104.089V40.2396H69.8487V0.53348Z" fill="#1B1B1B"/>
<path d="M130.226 0.53348H150.36C153.399 0.53348 156.033 0.855261 158.261 1.49882C160.49 2.12545 162.339 3.03999 163.808 4.24243C165.277 5.44488 166.366 6.90983 167.075 8.63729C167.801 10.3647 168.164 12.3208 168.164 14.5056C168.164 15.979 167.986 17.3847 167.632 18.7226C167.277 20.0436 166.729 21.263 165.986 22.3807C165.26 23.4985 164.339 24.4977 163.225 25.3784C162.111 26.2421 160.802 26.9619 159.3 27.5377L167.91 40.2396H158.084L150.638 28.9603H150.41L138.254 28.9349V40.2396H130.226V0.53348ZM150.562 21.9743C152.082 21.9743 153.407 21.7965 154.538 21.4408C155.686 21.0852 156.64 20.5855 157.4 19.942C158.177 19.2984 158.751 18.5194 159.122 17.6048C159.511 16.6734 159.705 15.6403 159.705 14.5056C159.705 12.287 158.945 10.5764 157.426 9.374C155.906 8.15462 153.618 7.54493 150.562 7.54493H138.254V21.9743H150.562Z" fill="#1B1B1B"/>
<path d="M176.673 0.53348H184.752V40.2396H176.673V0.53348Z" fill="#1B1B1B"/>
<path d="M196.858 28.4268C198.293 29.2398 199.745 29.9765 201.214 30.637C202.7 31.2805 204.236 31.831 205.823 32.2882C207.41 32.7286 209.073 33.0673 210.812 33.3044C212.568 33.5415 214.434 33.66 216.409 33.66C218.79 33.66 220.816 33.5076 222.488 33.2028C224.159 32.881 225.518 32.4491 226.565 31.9072C227.629 31.3483 228.397 30.6878 228.87 29.9257C229.359 29.1636 229.604 28.3337 229.604 27.4361C229.604 25.9966 229.005 24.8618 227.806 24.032C226.607 23.1852 224.759 22.7618 222.26 22.7618C221.162 22.7618 220.006 22.838 218.79 22.9904C217.574 23.1259 216.342 23.2783 215.092 23.4477C213.86 23.6171 212.636 23.778 211.42 23.9304C210.221 24.0659 209.09 24.1336 208.027 24.1336C206.254 24.1336 204.549 23.905 202.911 23.4477C201.29 22.9904 199.846 22.3045 198.58 21.39C197.331 20.4755 196.334 19.3323 195.592 17.9605C194.849 16.5887 194.477 14.9882 194.477 13.1592C194.477 12.0753 194.621 10.9998 194.908 9.93288C195.212 8.86592 195.684 7.84977 196.326 6.88443C196.985 5.90215 197.829 4.99608 198.859 4.16622C199.889 3.31943 201.13 2.59119 202.582 1.9815C204.05 1.37181 205.739 0.897601 207.647 0.558884C209.571 0.20323 211.758 0.0254038 214.206 0.0254038C215.979 0.0254038 217.76 0.127019 219.55 0.330249C221.34 0.516544 223.079 0.787518 224.767 1.14317C226.472 1.49882 228.11 1.93069 229.68 2.43876C231.25 2.9299 232.711 3.48032 234.062 4.09001L230.541 10.5934C229.427 10.1022 228.228 9.65344 226.945 9.24698C225.662 8.82359 224.32 8.45947 222.918 8.15462C221.517 7.84977 220.065 7.61267 218.562 7.44331C217.076 7.25702 215.557 7.16387 214.003 7.16387C211.792 7.16387 209.968 7.32476 208.533 7.64654C207.115 7.96832 205.984 8.38325 205.139 8.89133C204.295 9.38247 203.704 9.94135 203.367 10.568C203.046 11.1777 202.885 11.7874 202.885 12.3971C202.885 13.5826 203.417 14.5564 204.481 15.3185C205.545 16.0637 207.165 16.4363 209.344 16.4363C210.221 16.4363 211.226 16.377 212.357 16.2584C213.505 16.1229 214.704 15.979 215.954 15.8266C217.22 15.6741 218.503 15.5387 219.803 15.4201C221.12 15.2846 222.395 15.2169 223.627 15.2169C225.957 15.2169 228.017 15.4794 229.807 16.0044C231.613 16.5294 233.125 17.283 234.34 18.2653C235.556 19.2307 236.476 20.4077 237.101 21.7965C237.725 23.1683 238.038 24.7094 238.038 26.4199C238.038 28.7063 237.506 30.7471 236.442 32.5423C235.395 34.3205 233.893 35.8278 231.934 37.0641C229.993 38.2835 227.646 39.215 224.894 39.8586C222.142 40.4852 219.077 40.7985 215.7 40.7985C213.472 40.7985 211.294 40.6545 209.166 40.3666C207.039 40.0957 204.996 39.7061 203.037 39.1981C201.096 38.673 199.239 38.0549 197.466 37.3436C195.71 36.6153 194.08 35.8194 192.578 34.9556L196.858 28.4268Z" fill="#1B1B1B"/>
<path d="M246.876 0.53348H280.585V7.59574H254.905V15.5217H277.647V22.1521H254.905V33.2028H281.117V40.2396H246.876V0.53348Z" fill="#1B1B1B"/>
<path d="M319.182 7.59574H304.569V0.53348H341.823V7.59574H327.21V40.2396H319.182V7.59574Z" fill="#1B1B1B"/>
<path d="M348.079 20.2722C348.079 17.2746 348.627 14.531 349.725 12.0414C350.822 9.55183 352.359 7.41791 354.334 5.63964C356.326 3.84444 358.707 2.4557 361.476 1.47342C364.262 0.49114 367.343 0 370.72 0C374.08 0 377.153 0.49114 379.939 1.47342C382.724 2.4557 385.105 3.84444 387.08 5.63964C389.073 7.41791 390.618 9.55183 391.715 12.0414C392.812 14.531 393.361 17.2746 393.361 20.2722C393.361 23.2868 392.812 26.0558 391.715 28.5793C390.618 31.0858 389.073 33.2451 387.08 35.0572C385.105 36.8694 382.724 38.2835 379.939 39.2997C377.153 40.2989 374.08 40.7985 370.72 40.7985C367.343 40.7985 364.262 40.2989 361.476 39.2997C358.707 38.2835 356.326 36.8694 354.334 35.0572C352.359 33.2451 350.822 31.0858 349.725 28.5793C348.627 26.0558 348.079 23.2868 348.079 20.2722ZM356.107 20.2722C356.107 22.3215 356.47 24.1675 357.196 25.8103C357.939 27.453 358.96 28.8587 360.26 30.0273C361.577 31.1789 363.122 32.0681 364.895 32.6947C366.685 33.3213 368.626 33.6346 370.72 33.6346C372.813 33.6346 374.747 33.3213 376.52 32.6947C378.309 32.0681 379.854 31.1789 381.154 30.0273C382.454 28.8587 383.476 27.453 384.219 25.8103C384.961 24.1675 385.333 22.3215 385.333 20.2722C385.333 18.223 384.961 16.3854 384.219 14.7596C383.476 13.1338 382.454 11.762 381.154 10.6442C379.854 9.50949 378.309 8.64576 376.52 8.053C374.747 7.46025 372.813 7.16387 370.72 7.16387C368.626 7.16387 366.685 7.46025 364.895 8.053C363.122 8.64576 361.577 9.50949 360.26 10.6442C358.96 11.762 357.939 13.1338 357.196 14.7596C356.47 16.3854 356.107 18.223 356.107 20.2722Z" fill="#1B1B1B"/>
<path d="M431.426 7.59574H416.813V0.53348H454.067V7.59574H439.454V40.2396H431.426V7.59574Z" fill="#1B1B1B"/>
<path d="M462.627 0.53348H470.656V10.8982H495.272V0.53348H503.326V40.2396H495.272V17.7827H470.656V40.2396H462.627V0.53348Z" fill="#1B1B1B"/>
<path d="M514.571 0.53348H548.279V7.59574H522.599V15.5217H545.342V22.1521H522.599V33.2028H548.811V40.2396H514.571V0.53348Z" fill="#1B1B1B"/>
<path d="M572.542 20.1452C572.542 17.3169 573.073 14.6834 574.137 12.2446C575.201 9.78893 576.737 7.66348 578.746 5.86828C580.773 4.05614 583.238 2.63353 586.142 1.60044C589.062 0.567352 592.363 0.0508076 596.044 0.0508076C599.269 0.0508076 602.224 0.381057 604.908 1.04156C607.609 1.68512 610.117 2.67587 612.43 4.0138L608.732 10.1107C608.04 9.65344 607.238 9.24698 606.326 8.89133C605.431 8.53568 604.469 8.2393 603.439 8.0022C602.426 7.74816 601.371 7.5534 600.273 7.41791C599.193 7.28242 598.121 7.21468 597.057 7.21468C594.491 7.21468 592.203 7.53646 590.194 8.18002C588.185 8.80665 586.488 9.69578 585.103 10.8474C583.736 11.9821 582.689 13.3455 581.963 14.9374C581.254 16.5125 580.899 18.2484 580.899 20.1452C580.899 22.1098 581.271 23.9134 582.013 25.5562C582.756 27.199 583.828 28.6216 585.23 29.8241C586.648 31.0096 588.37 31.941 590.396 32.6185C592.439 33.279 594.744 33.6092 597.31 33.6092C598.475 33.6092 599.632 33.5245 600.78 33.3552C601.928 33.1858 603.034 32.9572 604.098 32.6693C605.178 32.3644 606.217 32.0088 607.213 31.6023C608.209 31.1789 609.138 30.7217 609.999 30.2305L613.696 36.3274C611.535 37.7162 609.036 38.8085 606.2 39.6045C603.363 40.3836 600.349 40.7731 597.158 40.7731C593.089 40.7731 589.518 40.2481 586.445 39.1981C583.373 38.1311 580.806 36.6746 578.746 34.8286C576.687 32.9657 575.133 30.7809 574.086 28.2744C573.057 25.751 572.542 23.0412 572.542 20.1452Z" fill="#1B1B1B"/>
<path d="M622.535 0.53348H630.563V10.8982H655.18V0.53348H663.234V40.2396H655.18V17.7827H630.563V40.2396H622.535V0.53348Z" fill="#1B1B1B"/>
<path d="M687.977 0.53348H696.486L715.633 40.2396H707.199L704.033 33.5584H680.911L677.847 40.2396H669.388L687.977 0.53348ZM700.868 26.928L692.308 8.89133L683.975 26.928H700.868Z" fill="#1B1B1B"/>
<path d="M721.787 0.53348H729.815V33.1774H752.836V40.2396H721.787V0.53348Z" fill="#1B1B1B"/>
<path d="M760.637 0.53348H768.665V33.1774H791.686V40.2396H760.637V0.53348Z" fill="#1B1B1B"/>
<path d="M799.487 0.53348H833.195V7.59574H807.515V15.5217H830.258V22.1521H807.515V33.2028H833.727V40.2396H799.487V0.53348Z" fill="#1B1B1B"/>
<path d="M842.591 0.53348H850.62L875.287 13.4894V0.53348H883.315V40.2396H875.287V22.0251L850.62 9.14537V40.2396H842.591V0.53348Z" fill="#1B1B1B"/>
<path d="M891.799 20.0182C891.799 17.2238 892.323 14.6157 893.37 12.1938C894.416 9.75506 895.944 7.63807 897.954 5.84287C899.963 4.04767 902.428 2.63353 905.349 1.60044C908.286 0.567352 911.646 0.0508076 915.428 0.0508076C916.796 0.0508076 918.164 0.127019 919.531 0.279442C920.916 0.414929 922.275 0.635095 923.609 0.939941C924.959 1.24479 926.268 1.63431 927.534 2.10852C928.817 2.56578 930.033 3.1162 931.181 3.75976L927.484 9.85667C926.791 9.45021 926.006 9.08609 925.128 8.76431C924.25 8.42559 923.305 8.14615 922.292 7.92598C921.296 7.68888 920.257 7.51106 919.177 7.39251C918.113 7.27395 917.041 7.21468 915.96 7.21468C913.461 7.21468 911.233 7.53646 909.274 8.18002C907.316 8.80665 905.661 9.69578 904.31 10.8474C902.96 11.9821 901.93 13.3455 901.221 14.9374C900.511 16.5294 900.157 18.2738 900.157 20.1706C900.157 22.1352 900.528 23.9388 901.271 25.5816C902.014 27.2244 903.069 28.6385 904.437 29.8241C905.805 31.0096 907.459 31.941 909.401 32.6185C911.342 33.279 913.512 33.6092 915.91 33.6092C917.818 33.6092 919.565 33.3975 921.152 32.9741C922.739 32.5338 924.124 31.9156 925.305 31.1197C926.487 30.3237 927.45 29.3668 928.193 28.249C928.936 27.1143 929.425 25.8441 929.661 24.4385H915.834V17.8081H936.879V17.8335L936.905 17.8081C937.327 19.8404 937.453 21.8219 937.285 23.7526C937.133 25.6663 936.694 27.4784 935.968 29.189C935.259 30.8825 934.279 32.4407 933.03 33.8633C931.78 35.2859 930.286 36.5137 928.547 37.5468C926.808 38.563 924.833 39.359 922.621 39.9348C920.409 40.4937 917.986 40.7731 915.352 40.7731C911.672 40.7731 908.371 40.2311 905.45 39.1473C902.546 38.0634 900.081 36.5815 898.055 34.7016C896.029 32.8217 894.475 30.62 893.395 28.0966C892.331 25.5732 891.799 22.8804 891.799 20.0182Z" fill="#1B1B1B"/>
<path d="M946.377 0.53348H980.085V7.59574H954.405V15.5217H977.148V22.1521H954.405V33.2028H980.617V40.2396H946.377V0.53348Z" fill="#1B1B1B"/>
<path d="M1018.68 7.59574H1004.07V0.53348H1041.32V7.59574H1026.71V40.2396H1018.68V7.59574Z" fill="#1B1B1B"/>
<path d="M1047.58 20.2722C1047.58 17.2746 1048.13 14.531 1049.22 12.0414C1050.32 9.55183 1051.86 7.41791 1053.83 5.63964C1055.83 3.84444 1058.21 2.4557 1060.98 1.47342C1063.76 0.49114 1066.84 0 1070.22 0C1073.58 0 1076.65 0.49114 1079.44 1.47342C1082.22 2.4557 1084.61 3.84444 1086.58 5.63964C1088.57 7.41791 1090.12 9.55183 1091.22 12.0414C1092.31 14.531 1092.86 17.2746 1092.86 20.2722C1092.86 23.2868 1092.31 26.0558 1091.22 28.5793C1090.12 31.0858 1088.57 33.2451 1086.58 35.0572C1084.61 36.8694 1082.22 38.2835 1079.44 39.2997C1076.65 40.2989 1073.58 40.7985 1070.22 40.7985C1066.84 40.7985 1063.76 40.2989 1060.98 39.2997C1058.21 38.2835 1055.83 36.8694 1053.83 35.0572C1051.86 33.2451 1050.32 31.0858 1049.22 28.5793C1048.13 26.0558 1047.58 23.2868 1047.58 20.2722ZM1055.61 20.2722C1055.61 22.3215 1055.97 24.1675 1056.7 25.8103C1057.44 27.453 1058.46 28.8587 1059.76 30.0273C1061.08 31.1789 1062.62 32.0681 1064.4 32.6947C1066.18 33.3213 1068.13 33.6346 1070.22 33.6346C1072.31 33.6346 1074.25 33.3213 1076.02 32.6947C1077.81 32.0681 1079.35 31.1789 1080.65 30.0273C1081.95 28.8587 1082.98 27.453 1083.72 25.8103C1084.46 24.1675 1084.83 22.3215 1084.83 20.2722C1084.83 18.223 1084.46 16.3854 1083.72 14.7596C1082.98 13.1338 1081.95 11.762 1080.65 10.6442C1079.35 9.50949 1077.81 8.64576 1076.02 8.053C1074.25 7.46025 1072.31 7.16387 1070.22 7.16387C1068.13 7.16387 1066.18 7.46025 1064.4 8.053C1062.62 8.64576 1061.08 9.50949 1059.76 10.6442C1058.46 11.762 1057.44 13.1338 1056.7 14.7596C1055.97 16.3854 1055.61 18.223 1055.61 20.2722Z" fill="#1B1B1B"/>
<path d="M1119.02 0.53348H1127.05L1141.44 15.0136L1155.82 0.53348H1163.85V40.2396H1155.82V11.6857L1141.44 25.5816L1127.05 11.6857V40.2396H1119.02V0.53348Z" fill="#1B1B1B"/>
<path d="M1175.12 0.53348H1208.83V7.59574H1183.15V15.5217H1205.89V22.1521H1183.15V33.2028H1209.36V40.2396H1175.12V0.53348Z" fill="#1B1B1B"/>
<path d="M1218.28 0.53348H1251.98V7.59574H1226.3V15.5217H1249.05V22.1521H1226.3V33.2028H1252.52V40.2396H1218.28V0.53348Z" fill="#1B1B1B"/>
<path d="M1273.36 7.59574H1258.75V0.53348H1296V7.59574H1281.39V40.2396H1273.36V7.59574Z" fill="#1B1B1B"/>
<path d="M17.2976 97.6099L0 67.735H9.09198L21.2737 90.319L33.3035 67.735H42.3955L25.3259 97.5591V107.441H17.2976V97.6099Z" fill="#1B1B1B"/>
<path d="M46.1437 87.4737C46.1437 84.4761 46.6924 81.7325 47.7899 79.2429C48.8873 76.7533 50.4238 74.6194 52.3992 72.8412C54.3915 71.046 56.7721 69.6572 59.5411 68.6749C62.3269 67.6926 65.4082 67.2015 68.785 67.2015C72.1449 67.2015 75.2178 67.6926 78.0036 68.6749C80.7895 69.6572 83.1701 71.046 85.1455 72.8412C87.1378 74.6194 88.6827 76.7533 89.7802 79.2429C90.8776 81.7325 91.4263 84.4761 91.4263 87.4737C91.4263 90.4883 90.8776 93.2573 89.7802 95.7808C88.6827 98.2873 87.1378 100.447 85.1455 102.259C83.1701 104.071 80.7895 105.485 78.0036 106.501C75.2178 107.5 72.1449 108 68.785 108C65.4082 108 62.3269 107.5 59.5411 106.501C56.7721 105.485 54.3915 104.071 52.3992 102.259C50.4238 100.447 48.8873 98.2873 47.7899 95.7808C46.6924 93.2573 46.1437 90.4883 46.1437 87.4737ZM54.172 87.4737C54.172 89.523 54.535 91.369 55.261 93.0118C56.0039 94.6545 57.0254 96.0602 58.3254 97.2288C59.6424 98.3804 61.1873 99.2696 62.9601 99.8962C64.7498 100.523 66.6914 100.836 68.785 100.836C70.8786 100.836 72.8118 100.523 74.5846 99.8962C76.3743 99.2696 77.9192 98.3804 79.2193 97.2288C80.5193 96.0602 81.5408 94.6545 82.2837 93.0118C83.0266 91.369 83.398 89.523 83.398 87.4737C83.398 85.4245 83.0266 83.587 82.2837 81.9611C81.5408 80.3353 80.5193 78.9635 79.2193 77.8457C77.9192 76.711 76.3743 75.8473 74.5846 75.2545C72.8118 74.6618 70.8786 74.3654 68.785 74.3654C66.6914 74.3654 64.7498 74.6618 62.9601 75.2545C61.1873 75.8473 59.6424 76.711 58.3254 77.8457C57.0254 78.9635 56.0039 80.3353 55.261 81.9611C54.535 83.587 54.172 85.4245 54.172 87.4737Z" fill="#1B1B1B"/>
<path d="M98.8468 67.735H106.875V89.6077C106.875 91.4029 107.12 93.0033 107.61 94.409C108.099 95.7977 108.825 96.9748 109.788 97.9401C110.767 98.9054 111.974 99.6422 113.409 100.15C114.844 100.641 116.516 100.887 118.424 100.887C120.315 100.887 121.978 100.641 123.413 100.15C124.865 99.6422 126.072 98.9054 127.034 97.9401C128.014 96.9748 128.748 95.7977 129.238 94.409C129.727 93.0033 129.972 91.4029 129.972 89.6077V67.735H138.001V90.573C138.001 93.1811 137.562 95.5521 136.684 97.6861C135.806 99.82 134.531 101.649 132.859 103.173C131.188 104.698 129.137 105.875 126.705 106.704C124.291 107.534 121.53 107.949 118.424 107.949C115.317 107.949 112.548 107.534 110.117 106.704C107.702 105.875 105.659 104.698 103.988 103.173C102.316 101.649 101.042 99.82 100.164 97.6861C99.2858 95.5521 98.8468 93.1811 98.8468 90.573V67.735Z" fill="#1B1B1B"/>
<path d="M147.802 67.735H167.936C170.975 67.735 173.609 68.0568 175.837 68.7003C178.066 69.327 179.915 70.2415 181.384 71.4439C182.853 72.6464 183.942 74.1113 184.651 75.8388C185.377 77.5663 185.74 79.5224 185.74 81.7071C185.74 83.1805 185.563 84.5862 185.208 85.9241C184.853 87.2451 184.305 88.4645 183.562 89.5823C182.836 90.7 181.916 91.6992 180.801 92.5799C179.687 93.4436 178.378 94.1634 176.876 94.7392L185.487 107.441H175.66L168.214 96.1618H167.986L155.83 96.1364V107.441H147.802V67.735ZM168.138 89.1758C169.658 89.1758 170.983 88.998 172.115 88.6423C173.263 88.2867 174.217 87.787 174.976 87.1435C175.753 86.4999 176.327 85.7209 176.699 84.8063C177.087 83.8749 177.281 82.8418 177.281 81.7071C177.281 79.4885 176.521 77.778 175.002 76.5755C173.482 75.3561 171.194 74.7464 168.138 74.7464H155.83V89.1758H168.138Z" fill="#1B1B1B"/>
<path d="M212.484 67.735H246.193V74.7972H220.512V82.7232H243.255V89.3536H220.512V100.404H246.724V107.441H212.484V67.735Z" fill="#1B1B1B"/>
<path d="M250.346 67.735H259.235L271.67 98.0163L284.105 67.735H292.995L275.647 107.441H267.694L250.346 67.735Z" fill="#1B1B1B"/>
<path d="M298.946 67.735H332.655V74.7972H306.975V82.7232H329.717V89.3536H306.975V100.404H333.187V107.441H298.946V67.735Z" fill="#1B1B1B"/>
<path d="M342.102 67.735H362.236C365.275 67.735 367.909 68.0568 370.137 68.7003C372.366 69.327 374.215 70.2415 375.684 71.4439C377.153 72.6464 378.242 74.1113 378.951 75.8388C379.677 77.5663 380.04 79.5224 380.04 81.7071C380.04 83.1805 379.863 84.5862 379.508 85.9241C379.153 87.2451 378.605 88.4645 377.862 89.5823C377.136 90.7 376.216 91.6992 375.101 92.5799C373.987 93.4436 372.678 94.1634 371.176 94.7392L379.787 107.441H369.96L362.514 96.1618H362.286L350.13 96.1364V107.441H342.102V67.735ZM362.438 89.1758C363.958 89.1758 365.283 88.998 366.414 88.6423C367.563 88.2867 368.517 87.787 369.276 87.1435C370.053 86.4999 370.627 85.7209 370.998 84.8063C371.387 83.8749 371.581 82.8418 371.581 81.7071C371.581 79.4885 370.821 77.778 369.302 76.5755C367.782 75.3561 365.494 74.7464 362.438 74.7464H350.13V89.1758H362.438Z" fill="#1B1B1B"/>
<path d="M401.693 97.6099L384.396 67.735H393.488L405.67 90.319L417.699 67.735H426.791L409.722 97.5591V107.441H401.693V97.6099Z" fill="#1B1B1B"/>
<path d="M450.066 67.735H458.094V78.0997H482.711V67.735H490.764V107.441H482.711V84.9842H458.094V107.441H450.066V67.735Z" fill="#1B1B1B"/>
<path d="M499.679 87.4737C499.679 84.4761 500.228 81.7325 501.325 79.2429C502.423 76.7533 503.959 74.6194 505.935 72.8412C507.927 71.046 510.308 69.6572 513.077 68.6749C515.862 67.6926 518.944 67.2015 522.32 67.2015C525.68 67.2015 528.753 67.6926 531.539 68.6749C534.325 69.6572 536.706 71.046 538.681 72.8412C540.673 74.6194 542.218 76.7533 543.316 79.2429C544.413 81.7325 544.962 84.4761 544.962 87.4737C544.962 90.4883 544.413 93.2573 543.316 95.7808C542.218 98.2873 540.673 100.447 538.681 102.259C536.706 104.071 534.325 105.485 531.539 106.501C528.753 107.5 525.68 108 522.32 108C518.944 108 515.862 107.5 513.077 106.501C510.308 105.485 507.927 104.071 505.935 102.259C503.959 100.447 502.423 98.2873 501.325 95.7808C500.228 93.2573 499.679 90.4883 499.679 87.4737ZM507.707 87.4737C507.707 89.523 508.07 91.369 508.796 93.0118C509.539 94.6545 510.561 96.0602 511.861 97.2288C513.178 98.3804 514.723 99.2696 516.495 99.8962C518.285 100.523 520.227 100.836 522.32 100.836C524.414 100.836 526.347 100.523 528.12 99.8962C529.91 99.2696 531.455 98.3804 532.755 97.2288C534.055 96.0602 535.076 94.6545 535.819 93.0118C536.562 91.369 536.933 89.523 536.933 87.4737C536.933 85.4245 536.562 83.587 535.819 81.9611C535.076 80.3353 534.055 78.9635 532.755 77.8457C531.455 76.711 529.91 75.8473 528.12 75.2545C526.347 74.6618 524.414 74.3654 522.32 74.3654C520.227 74.3654 518.285 74.6618 516.495 75.2545C514.723 75.8473 513.178 76.711 511.861 77.8457C510.561 78.9635 509.539 80.3353 508.796 81.9611C508.07 83.587 507.707 85.4245 507.707 87.4737Z" fill="#1B1B1B"/>
<path d="M552.382 67.735H560.411V89.6077C560.411 91.4029 560.655 93.0033 561.145 94.409C561.635 95.7977 562.361 96.9748 563.323 97.9401C564.302 98.9054 565.51 99.6422 566.945 100.15C568.38 100.641 570.051 100.887 571.959 100.887C573.85 100.887 575.513 100.641 576.948 100.15C578.4 99.6422 579.608 98.9054 580.57 97.9401C581.549 96.9748 582.284 95.7977 582.773 94.409C583.263 93.0033 583.508 91.4029 583.508 89.6077V67.735H591.536V90.573C591.536 93.1811 591.097 95.5521 590.219 97.6861C589.341 99.82 588.066 101.649 586.395 103.173C584.723 104.698 582.672 105.875 580.241 106.704C577.826 107.534 575.066 107.949 571.959 107.949C568.852 107.949 566.084 107.534 563.652 106.704C561.238 105.875 559.195 104.698 557.523 103.173C555.852 101.649 554.577 99.82 553.699 97.6861C552.821 95.5521 552.382 93.1811 552.382 90.573V67.735Z" fill="#1B1B1B"/>
<path d="M603.186 95.6284C604.621 96.4413 606.073 97.178 607.542 97.8385C609.028 98.4821 610.564 99.0325 612.151 99.4897C613.738 99.9301 615.401 100.269 617.14 100.506C618.896 100.743 620.762 100.862 622.737 100.862C625.118 100.862 627.144 100.709 628.816 100.404C630.487 100.082 631.846 99.6506 632.893 99.1087C633.957 98.5498 634.725 97.8893 635.198 97.1272C635.687 96.3651 635.932 95.5352 635.932 94.6376C635.932 93.1981 635.333 92.0634 634.134 91.2335C632.935 90.3867 631.087 89.9633 628.588 89.9633C627.49 89.9633 626.334 90.0395 625.118 90.1919C623.902 90.3274 622.67 90.4799 621.421 90.6492C620.188 90.8186 618.964 90.9795 617.748 91.1319C616.55 91.2674 615.418 91.3351 614.355 91.3351C612.582 91.3351 610.877 91.1065 609.239 90.6492C607.618 90.1919 606.174 89.5061 604.908 88.5915C603.659 87.677 602.663 86.5338 601.92 85.162C601.177 83.7902 600.805 82.1898 600.805 80.3607C600.805 79.2768 600.949 78.2014 601.236 77.1344C601.54 76.0674 602.012 75.0513 602.654 74.0859C603.312 73.1037 604.157 72.1976 605.187 71.3677C606.217 70.5209 607.458 69.7927 608.91 69.183C610.378 68.5733 612.067 68.0991 613.975 67.7604C615.899 67.4047 618.086 67.2269 620.534 67.2269C622.307 67.2269 624.088 67.3285 625.878 67.5318C627.668 67.7181 629.407 67.989 631.095 68.3447C632.8 68.7003 634.438 69.1322 636.008 69.6403C637.578 70.1314 639.039 70.6818 640.39 71.2915L636.869 77.7949C635.755 77.3038 634.556 76.855 633.273 76.4485C631.99 76.0251 630.648 75.661 629.246 75.3561C627.845 75.0513 626.393 74.8142 624.89 74.6448C623.404 74.4585 621.885 74.3654 620.332 74.3654C618.12 74.3654 616.296 74.5263 614.861 74.8481C613.443 75.1698 612.312 75.5848 611.467 76.0928C610.623 76.584 610.032 77.1429 609.695 77.7695C609.374 78.3792 609.213 78.9889 609.213 79.5986C609.213 80.7841 609.745 81.7579 610.809 82.52C611.873 83.2652 613.494 83.6378 615.672 83.6378C616.55 83.6378 617.554 83.5785 618.685 83.4599C619.833 83.3245 621.032 83.1805 622.282 83.0281C623.548 82.8757 624.831 82.7402 626.131 82.6216C627.448 82.4861 628.723 82.4184 629.955 82.4184C632.285 82.4184 634.345 82.6809 636.135 83.2059C637.941 83.7309 639.453 84.4846 640.668 85.4668C641.884 86.4322 642.804 87.6092 643.429 88.998C644.053 90.3698 644.366 91.9109 644.366 93.6215C644.366 95.9078 643.834 97.9486 642.77 99.7438C641.723 101.522 640.221 103.029 638.262 104.266C636.321 105.485 633.974 106.417 631.222 107.06C628.47 107.687 625.405 108 622.028 108C619.8 108 617.622 107.856 615.494 107.568C613.367 107.297 611.324 106.908 609.365 106.4C607.424 105.875 605.567 105.256 603.794 104.545C602.038 103.817 600.409 103.021 598.906 102.157L603.186 95.6284Z" fill="#1B1B1B"/>
<path d="M653.204 67.735H686.913V74.7972H661.233V82.7232H683.975V89.3536H661.233V100.404H687.445V107.441H653.204V67.735Z" fill="#1B1B1B"/>
<path d="M696.334 67.735H704.363V78.0997H728.979V67.735H737.033V107.441H728.979V84.9842H704.363V107.441H696.334V67.735Z" fill="#1B1B1B"/>
<path d="M745.948 87.4737C745.948 84.4761 746.496 81.7325 747.594 79.2429C748.691 76.7533 750.228 74.6194 752.203 72.8412C754.196 71.046 756.576 69.6572 759.345 68.6749C762.131 67.6926 765.212 67.2015 768.589 67.2015C771.949 67.2015 775.022 67.6926 777.808 68.6749C780.594 69.6572 782.974 71.046 784.95 72.8412C786.942 74.6194 788.487 76.7533 789.584 79.2429C790.682 81.7325 791.23 84.4761 791.23 87.4737C791.23 90.4883 790.682 93.2573 789.584 95.7808C788.487 98.2873 786.942 100.447 784.95 102.259C782.974 104.071 780.594 105.485 777.808 106.501C775.022 107.5 771.949 108 768.589 108C765.212 108 762.131 107.5 759.345 106.501C756.576 105.485 754.196 104.071 752.203 102.259C750.228 100.447 748.691 98.2873 747.594 95.7808C746.496 93.2573 745.948 90.4883 745.948 87.4737ZM753.976 87.4737C753.976 89.523 754.339 91.369 755.065 93.0118C755.808 94.6545 756.829 96.0602 758.13 97.2288C759.446 98.3804 760.991 99.2696 762.764 99.8962C764.554 100.523 766.495 100.836 768.589 100.836C770.683 100.836 772.616 100.523 774.389 99.8962C776.178 99.2696 777.723 98.3804 779.023 97.2288C780.323 96.0602 781.345 94.6545 782.088 93.0118C782.831 91.369 783.202 89.523 783.202 87.4737C783.202 85.4245 782.831 83.587 782.088 81.9611C781.345 80.3353 780.323 78.9635 779.023 77.8457C777.723 76.711 776.178 75.8473 774.389 75.2545C772.616 74.6618 770.683 74.3654 768.589 74.3654C766.495 74.3654 764.554 74.6618 762.764 75.2545C760.991 75.8473 759.446 76.711 758.13 77.8457C756.829 78.9635 755.808 80.3353 755.065 81.9611C754.339 83.587 753.976 85.4245 753.976 87.4737Z" fill="#1B1B1B"/>
<path d="M800.145 67.735H808.173V100.379H831.195V107.441H800.145V67.735Z" fill="#1B1B1B"/>
<path d="M838.995 67.735H853.507C857.745 67.735 861.425 68.1923 864.549 69.1068C867.672 70.0213 870.255 71.3339 872.298 73.0444C874.358 74.738 875.886 76.8042 876.882 79.2429C877.896 81.6647 878.402 84.3914 878.402 87.4229C878.402 90.302 877.904 92.9694 876.908 95.4251C875.912 97.8639 874.392 99.9809 872.349 101.776C870.306 103.554 867.723 104.952 864.599 105.968C861.476 106.967 857.795 107.467 853.557 107.467L838.995 107.441V67.735ZM855.482 100.48C857.88 100.48 859.982 100.176 861.788 99.5659C863.595 98.9393 865.098 98.0587 866.296 96.924C867.512 95.7893 868.424 94.4174 869.031 92.8085C869.639 91.1996 869.943 89.4044 869.943 87.4229C869.943 85.4753 869.639 83.7225 869.031 82.1643C868.424 80.5893 867.512 79.2598 866.296 78.1759C865.098 77.0751 863.595 76.2283 861.788 75.6356C859.982 75.0428 857.88 74.7464 855.482 74.7464H847.023V100.48H855.482Z" fill="#1B1B1B"/>
<path d="M903.627 67.735H911.655L936.322 80.6909V67.735H944.351V107.441H936.322V89.2266L911.655 76.3469V107.441H903.627V67.735Z" fill="#1B1B1B"/>
<path d="M955.545 67.735H989.253V74.7972H963.573V82.7232H986.315V89.3536H963.573V100.404H989.785V107.441H955.545V67.735Z" fill="#1B1B1B"/>
<path d="M998.7 67.735H1032.41V74.7972H1006.73V82.7232H1029.47V89.3536H1006.73V100.404H1032.94V107.441H998.7V67.735Z" fill="#1B1B1B"/>
<path d="M1041.86 67.735H1056.37C1060.6 67.735 1064.29 68.1923 1067.41 69.1068C1070.53 70.0213 1073.12 71.3339 1075.16 73.0444C1077.22 74.738 1078.75 76.8042 1079.74 79.2429C1080.76 81.6647 1081.26 84.3914 1081.26 87.4229C1081.26 90.302 1080.76 92.9694 1079.77 95.4251C1078.77 97.8639 1077.25 99.9809 1075.21 101.776C1073.17 103.554 1070.58 104.952 1067.46 105.968C1064.34 106.967 1060.66 107.467 1056.42 107.467L1041.86 107.441V67.735ZM1058.34 100.48C1060.74 100.48 1062.84 100.176 1064.65 99.5659C1066.45 98.9393 1067.96 98.0587 1069.16 96.924C1070.37 95.7893 1071.28 94.4174 1071.89 92.8085C1072.5 91.1996 1072.8 89.4044 1072.8 87.4229C1072.8 85.4753 1072.5 83.7225 1071.89 82.1643C1071.28 80.5893 1070.37 79.2598 1069.16 78.1759C1067.96 77.0751 1066.45 76.2283 1064.65 75.6356C1062.84 75.0428 1060.74 74.7464 1058.34 74.7464H1049.88V100.48H1058.34Z" fill="#1B1B1B"/>
<path d="M1088.53 103.046C1088.53 102.369 1088.67 101.734 1088.94 101.141C1089.22 100.531 1089.63 100.006 1090.15 99.5659C1090.67 99.1087 1091.31 98.753 1092.05 98.499C1092.79 98.2449 1093.63 98.1179 1094.56 98.1179C1095.49 98.1179 1096.32 98.2449 1097.07 98.499C1097.81 98.753 1098.43 99.1087 1098.94 99.5659C1099.46 100.006 1099.86 100.531 1100.13 101.141C1100.42 101.734 1100.56 102.369 1100.56 103.046C1100.56 103.724 1100.42 104.367 1100.13 104.977C1099.86 105.57 1099.46 106.086 1098.94 106.527C1098.43 106.967 1097.81 107.314 1097.07 107.568C1096.32 107.839 1095.49 107.975 1094.56 107.975C1093.63 107.975 1092.79 107.839 1092.05 107.568C1091.31 107.314 1090.67 106.967 1090.15 106.527C1089.63 106.086 1089.22 105.57 1088.94 104.977C1088.67 104.367 1088.53 103.724 1088.53 103.046Z" fill="#1B1B1B"/>
</svg>
