<svg width="22" height="18" viewBox="0 0 22 18" fill="none" xmlns="http://www.w3.org/2000/svg">
<g clip-path="url(#clip0_100_516)">
<path d="M20.3164 0.75H0.816406C0.401562 0.75 0.0664062 1.08516 0.0664062 1.5V16.5C0.0664062 16.9148 0.401562 17.25 0.816406 17.25H20.3164C20.7313 17.25 21.0664 16.9148 21.0664 16.5V1.5C21.0664 1.08516 20.7313 0.75 20.3164 0.75ZM18.4227 3.30234L11.0281 9.05625C10.8453 9.19922 10.5898 9.19922 10.407 9.05625L3.01016 3.30234C2.98227 3.28082 2.96182 3.25112 2.95167 3.21739C2.94151 3.18367 2.94217 3.14761 2.95354 3.11427C2.96491 3.08094 2.98643 3.052 3.01507 3.0315C3.04372 3.01101 3.07806 2.99999 3.11328 3H18.3195C18.3548 2.99999 18.3891 3.01101 18.4177 3.0315C18.4464 3.052 18.4679 3.08094 18.4793 3.11427C18.4906 3.14761 18.4913 3.18367 18.4811 3.21739C18.471 3.25112 18.4505 3.28082 18.4227 3.30234Z" fill="#1B1B1B"/>
</g>
<defs>
<clipPath id="clip0_100_516">
<rect width="22" height="18" fill="white"/>
</clipPath>
</defs>
</svg>
