<svg width="25" height="24" viewBox="0 0 25 24" fill="none" xmlns="http://www.w3.org/2000/svg">
<g clip-path="url(#clip0_100_524)">
<path d="M20.0664 0C21.306 0 22.3659 0.440104 23.2461 1.32031C24.1263 2.20052 24.5664 3.26042 24.5664 4.5V19.5C24.5664 20.7396 24.1263 21.7995 23.2461 22.6797C22.3659 23.5599 21.306 24 20.0664 24H17.1289V14.7031H20.2383L20.707 11.0781H17.1289V8.76562C17.1289 8.18229 17.2513 7.74479 17.4961 7.45312C17.7409 7.16146 18.2174 7.01562 18.9258 7.01562L20.832 7V3.76562C20.1758 3.67188 19.2487 3.625 18.0508 3.625C16.6341 3.625 15.5013 4.04167 14.6523 4.875C13.8034 5.70833 13.3789 6.88542 13.3789 8.40625V11.0781H10.2539V14.7031H13.3789V24H5.06641C3.82682 24 2.76693 23.5599 1.88672 22.6797C1.00651 21.7995 0.566406 20.7396 0.566406 19.5V4.5C0.566406 3.26042 1.00651 2.20052 1.88672 1.32031C2.76693 0.440104 3.82682 0 5.06641 0H20.0664Z" fill="#1B1B1B"/>
</g>
<defs>
<clipPath id="clip0_100_524">
<rect width="25" height="24" fill="white"/>
</clipPath>
</defs>
</svg>
