<svg width="25" height="24" viewBox="0 0 25 24" fill="none" xmlns="http://www.w3.org/2000/svg">
<path d="M16.4064 12C16.4064 12.7595 16.1812 13.5019 15.7592 14.1334C15.3373 14.7649 14.7376 15.2571 14.0359 15.5477C13.3342 15.8383 12.5621 15.9144 11.8173 15.7662C11.0724 15.618 10.3881 15.2523 9.85112 14.7153C9.31408 14.1783 8.94836 13.494 8.80019 12.7491C8.65202 12.0043 8.72807 11.2322 9.01871 10.5305C9.30935 9.82883 9.80153 9.2291 10.433 8.80716C11.0645 8.38521 11.8069 8.16 12.5664 8.16C13.5839 8.16316 14.5587 8.56875 15.2782 9.28821C15.9977 10.0077 16.4032 10.9825 16.4064 12ZM24.5664 6.72V17.28C24.5664 19.0623 23.8584 20.7715 22.5982 22.0318C21.3379 23.292 19.6287 24 17.8464 24H7.28641C5.50415 24 3.79489 23.292 2.53465 22.0318C1.2744 20.7715 0.566406 19.0623 0.566406 17.28V6.72C0.566406 4.93775 1.2744 3.22849 2.53465 1.96824C3.79489 0.707998 5.50415 0 7.28641 0H17.8464C19.6287 0 21.3379 0.707998 22.5982 1.96824C23.8584 3.22849 24.5664 4.93775 24.5664 6.72ZM18.3264 12C18.3264 10.8608 17.9886 9.74714 17.3557 8.79992C16.7228 7.85269 15.8232 7.11442 14.7707 6.67845C13.7182 6.24249 12.56 6.12843 11.4427 6.35068C10.3254 6.57293 9.29902 7.12151 8.49347 7.92707C7.68792 8.73262 7.13933 9.75895 6.91708 10.8763C6.69483 11.9936 6.8089 13.1518 7.24486 14.2043C7.68082 15.2568 8.41909 16.1563 9.36632 16.7893C10.3135 17.4222 11.4272 17.76 12.5664 17.76C14.0941 17.76 15.5591 17.1531 16.6393 16.0729C17.7196 14.9927 18.3264 13.5276 18.3264 12ZM20.2464 5.76C20.2464 5.47519 20.162 5.19679 20.0037 4.95998C19.8455 4.72317 19.6206 4.5386 19.3575 4.42961C19.0943 4.32062 18.8048 4.29211 18.5255 4.34767C18.2461 4.40323 17.9896 4.54038 17.7882 4.74177C17.5868 4.94315 17.4496 5.19974 17.3941 5.47907C17.3385 5.7584 17.367 6.04794 17.476 6.31106C17.585 6.57419 17.7696 6.79909 18.0064 6.95732C18.2432 7.11555 18.5216 7.2 18.8064 7.2C19.1883 7.2 19.5546 7.04829 19.8246 6.77823C20.0947 6.50818 20.2464 6.14191 20.2464 5.76Z" fill="#1B1B1B"/>
</svg>
